<svg xmlns="http://www.w3.org/2000/svg" viewBox="0 0 64 64" fill="none">
  <g transform="translate(2 8)">
    <path
      d="M12.2 4.5c2.4 0 4.2 1.3 5.1 3.2 1.3-1 3-1.6 5-1.6 3.7 0 7.2 2.2 8.4 5.8 1 3-.1 6.3-2.2 8.5l-3.2 3.5 3.2 4.1c1 1.3 1.2 2.9.6 4.1h1.8c1 0 1.9.8 1.9 1.9v1.2H7.4V34c0-1.1.8-1.9 1.9-1.9h1.8c-.5-1.2-.3-2.8.6-4.1l3.3-4.1-3.2-3.6C9.6 18 8.7 14.7 9.6 11.8c.9-3.1 3.8-5.4 6.9-5.4h.2c-.8-.6-1.2-1.3-1.2-1.9 0-1 .8-1.9 1.9-1.9ZM16.1 38.1h16.8c1.2 0 2.2 1 2.2 2.2v.7H13.9v-.7c0-1.2 1-2.2 2.2-2.2Z"
      fill="#7C4A21"
      stroke="#5A3213"
      stroke-width="1.6"
      stroke-linejoin="round"
    />
    <path
      d="M15.1 8.8c-1.5 1.7-2 4.3-1.3 6.6.5 1.7 1.4 2.9 2.9 4.1l2.6 2.1-2 2.5"
      stroke="#A56834"
      stroke-width="1.5"
      stroke-linecap="round"
    />
    <circle cx="21.7" cy="12.8" r="1.4" fill="#F5E1C8" />
  </g>
  <path d="M29 19 45 35" stroke="#DC2626" stroke-width="6" stroke-linecap="round" />
  <path d="M45 19 29 35" stroke="#DC2626" stroke-width="6" stroke-linecap="round" />
  <circle cx="52" cy="27" r="9" stroke="#22C55E" stroke-width="5" />
</svg>
